<svg xmlns="http://www.w3.org/2000/svg" xmlns:xlink="http://www.w3.org/1999/xlink" viewBox="0 0 192 192" id="svgid14" repair="1"><circle id="MTBteHk4NzYxMDAwMDAwMDAwMHh6czYwMw" cx="96" cy="96" r="88" fill="none"></circle><g id="MTBteHkzMjUxMDAwMDAwMDAwMHh6czQ1"><defs><path id="MTBteHk1NDcxMDAwMDAwMDAwMHh6czQ5Ng" d="M80.7 120.2s-5.9 3-41.3 20.7c-11.8 5.9-11.8 10.7-14.8 43.2h141.7c-3-32.5-3-37.3-14.8-43.2-37.8-18.9-41.3-20.7-41.3-20.7H80.7z"></path></defs><use fill="rgb(230,74,25)" fill-rule="evenodd" clip-rule="evenodd" overflow="visible" xlink:href="#MTBteHk1NDcxMDAwMDAwMDAwMHh6czQ5Ng" coriginal="rgb(230,74,25)" colortype="18" awdzp="18"></use><clipPath id="MTBteHk2MzQxMDAwMDAwMDAwMHh6czE2MQ"><use overflow="visible" xlink:href="#MTBteHk1NDcxMDAwMDAwMDAwMHh6czQ5Ng"></use></clipPath><g clip-path="url(#MTBteHk2MzQxMDAwMDAwMDAwMHh6czE2MQ)"><path fill="rgb(255,255,255)" d="M59.4 138.5l20-34.7 3.2 88.6-23.3-42.1c-2.4-4.3-2.4-7.6.1-11.8z" opacity=".15" coriginal="rgb(255,255,255)" colortype="0" awdzp="0"></path></g><g clip-path="url(#MTBteHk2MzQxMDAwMDAwMDAwMHh6czE2MQ)" opacity=".3"><path fill="rgb(191,54,12)" d="M131.6 138.5l-20-34.7-3.2 88.6 23.3-42.1c2.4-4.3 2.4-7.6-.1-11.8z" coriginal="rgb(191,54,12)" colortype="23" awdzp="23"></path></g><path fill="rgb(51,51,51)" fill-rule="evenodd" d="M95.5 153l-17.7-10.2V184h35.4v-41.2z" clip-rule="evenodd" coriginal="rgb(51,51,51)" colortype="34" awdzp="34"></path><path fill="rgb(230,74,25)" d="M157 87.3c0-17.1-27.4-31-61.1-31-33.8 0-61.1 13.9-61.1 31s27.4 31 61.1 31 61.1-13.9 61.1-31z" coriginal="rgb(230,74,25)" colortype="18" awdzp="18"></path><path fill="rgb(191,54,12)" d="M95.8 118.3c33.8 0 61.1-13.9 61.1-31s-27.4-31-61.1-31" opacity=".3" coriginal="rgb(191,54,12)" colortype="23" awdzp="23"></path><path fill="none" d="M78.2 123.1h35.4v30H78.2z"></path><path id="MTBteHk1NjMxMDAwMDAwMDAwMHh6czc3MA" fill="rgb(255,224,178)" fill-rule="evenodd" d="M130.1 54.8c-4.2-12.3-14-23.7-34.3-23.7C66.5 31.2 59 52.3 59 68v22.7c0 11.4 7.4 25.2 18.9 32.7v19.5L95.6 153l17.7-10.2v-19.2c11.8-7.4 19.4-21.4 19.4-33V70.8c0-4.8-.8-10.5-2.6-16z" clip-rule="evenodd" coriginal="rgb(255,224,178)" colortype="4" awdzp="4"></path><path fill="rgb(191,54,12)" d="M95.8 128.9c-3.2 0-6.2-.5-9.1-1.4l26.5 15.3v-19.2c-5.1 3.3-11 5.3-17.4 5.3z" opacity=".2" coriginal="rgb(191,54,12)" colortype="23" awdzp="23"></path><path fill="rgb(255,255,255)" d="M95.8 31.2V129C74.7 129 59 107.4 59 90.7V68c0-15.7 7.5-36.8 36.8-36.8z" opacity=".1" coriginal="rgb(255,255,255)" colortype="0" awdzp="0"></path><path fill="rgb(191,54,12)" d="M132.7 70.8v19.8c0 16.6-15.7 38.3-36.8 38.3V74.6l34.3-19.8c1.7 5.5 2.5 11.2 2.5 16z" opacity=".2" coriginal="rgb(191,54,12)" colortype="23" awdzp="23"></path><path fill="rgb(255,255,255)" d="M95.8 31.2V103L59 81.7V68c0-15.7 7.5-36.8 36.8-36.8z" opacity=".3" coriginal="rgb(255,255,255)" colortype="0" awdzp="0"></path><path fill-opacity=".6" d="M84.5 79.3c0 3.1-1.9 5.7-4.3 5.7-2.3 0-4.2-2.5-4.2-5.7 0-3.1 1.9-5.7 4.2-5.7 2.4.1 4.3 2.6 4.3 5.7zm31.2 0c0 3.1-1.9 5.7-4.2 5.7-2.3 0-4.3-2.5-4.3-5.7 0-3.1 1.9-5.7 4.3-5.7 2.3.1 4.2 2.6 4.2 5.7z"></path><path fill="rgb(255,255,255)" fill-rule="evenodd" d="M78.8 104.8h34s-5.7 11.3-17 11.3c-11.3.1-17-11.3-17-11.3z" clip-rule="evenodd" coriginal="rgb(255,255,255)" colortype="0" awdzp="0"></path><defs><path id="MTBteHk4MTcxMDAwMDAwMDAwMHh6czQ1Nw" d="M133.2 71.4c0-24.1-13.3-40.3-37.4-40.3-27.6 0-40 19-40 40.3 0 21.2 17.9 38.5 40 38.5 37.4 0 37.4-17.2 37.4-38.5z"></path></defs><clipPath id="MTBteHk1MjkxMDAwMDAwMDAwMHh6czI3NA"><use overflow="visible" xlink:href="#MTBteHk4MTcxMDAwMDAwMDAwMHh6czQ1Nw"></use></clipPath><defs><path id="MTBteHk3MDgxMDAwMDAwMDAwMHh6czczMA" d="M59 59.5h73.7V76H59z"></path></defs><clipPath id="MTBteHk5MzUxMDAwMDAwMDAwMHh6czk1NQ"><use overflow="visible" xlink:href="#MTBteHk3MDgxMDAwMDAwMDAwMHh6czczMA"></use></clipPath><g clip-path="url(#MTBteHk5MzUxMDAwMDAwMDAwMHh6czk1NQ)"><path fill="rgb(160,30,0)" d="M140.1 72.5c-1.1-24-17.2-42.8-44.2-42.8-27 0-43.2 18.8-44.2 42.8 11.1-5.9 26.8-9.6 44.2-9.6s33.1 3.7 44.2 9.6z" opacity=".2" coriginal="rgb(160,30,0)" colortype="27" awdzp="27"></path><path fill="rgb(230,74,25)" d="M140.1 71.5c-1.1-24-17.2-42.8-44.2-42.8-27 0-43.2 18.8-44.2 42.8 11.1-5.9 26.8-9.6 44.2-9.6s33.1 3.7 44.2 9.6z" coriginal="rgb(230,74,25)" colortype="18" awdzp="18"></path></g><path fill="rgb(230,74,25)" d="M140.1 71.5c-1.1-24-17.2-42.8-44.2-42.8-27 0-43.2 18.8-44.2 42.8 11.1-5.9 26.8-9.6 44.2-9.6s33.1 3.7 44.2 9.6z" coriginal="rgb(230,74,25)" colortype="18" awdzp="18"></path><path fill="rgb(191,54,12)" d="M140.2 71.5c-1.1-24-17.2-42.8-44.2-42.8v33.2c18 0 33.1 3.7 44.2 9.6z" opacity=".3" coriginal="rgb(191,54,12)" colortype="23" awdzp="23"></path><path fill="rgb(160,30,0)" d="M107 48.7c0 5.1-4.2 9.3-9.3 9.3h-4.4c-5.1 0-9.3-4.2-9.3-9.3V30.3c0-5.1 4.2-9.3 9.3-9.3h4.4c5.1 0 9.3 4.2 9.3 9.3v18.4z" opacity=".2" coriginal="rgb(160,30,0)" colortype="27" awdzp="27"></path><path fill="rgb(230,74,25)" d="M107 47.7c0 5.1-4.2 9.3-9.3 9.3h-4.4c-5.1 0-9.3-4.2-9.3-9.3V29.3c0-5.1 4.2-9.3 9.3-9.3h4.4c5.1 0 9.3 4.2 9.3 9.3v18.4z" coriginal="rgb(230,74,25)" colortype="18" awdzp="18"></path><path fill="rgb(253,216,53)" d="M95.8 33.3l2.8 5.5 6 .9-4.4 4.3 1.1 6.1-5.5-2.9-5.4 2.9 1-6.1-4.4-4.3 6.1-.9z" coriginal="rgb(253,216,53)" colortype="7" awdzp="7"></path></g></svg>